<?xml version="1.0" encoding="UTF-8"?>
<svg version="1.1" xmlns="http://www.w3.org/2000/svg" width="50" height="50">
<path d="M0 0 C6.21022081 3.77380156 11.12756342 9.38269026 13.4375 16.3125 C14.25148841 25.25474411 14.0534053 32.98623505 8.4375 40.3125 C5.95495015 42.67215134 3.38642099 44.57715087 0.4375 46.3125 C-0.17996094 46.6940625 -0.79742187 47.075625 -1.43359375 47.46875 C-3.5625 48.3125 -3.5625 48.3125 -9.5625 48.3125 C-9.5625 42.3725 -9.5625 36.4325 -9.5625 30.3125 C-6.9225 30.3125 -4.2825 30.3125 -1.5625 30.3125 C-1.5625 28.0025 -1.5625 25.6925 -1.5625 23.3125 C-4.2025 23.3125 -6.8425 23.3125 -9.5625 23.3125 C-9.60491723 20.97955225 -9.60342937 18.64547433 -9.5625 16.3125 C-8.5625 15.3125 -8.5625 15.3125 -5 15.25 C-3.865625 15.270625 -2.73125 15.29125 -1.5625 15.3125 C-1.5625 13.0025 -1.5625 10.6925 -1.5625 8.3125 C-3.1690676 8.56870684 -4.7727483 8.84305871 -6.375 9.125 C-7.26832031 9.27582031 -8.16164063 9.42664062 -9.08203125 9.58203125 C-11.8525406 10.39791353 -12.89318187 10.97545461 -14.5625 13.3125 C-15.35048055 15.80693774 -15.35048055 15.80693774 -15.75 18.5 C-15.98783203 19.85158203 -15.98783203 19.85158203 -16.23046875 21.23046875 C-16.39482422 22.26107422 -16.39482422 22.26107422 -16.5625 23.3125 C-18.2125 23.3125 -19.8625 23.3125 -21.5625 23.3125 C-21.5625 25.6225 -21.5625 27.9325 -21.5625 30.3125 C-19.9125 30.3125 -18.2625 30.3125 -16.5625 30.3125 C-16.5625 36.2525 -16.5625 42.1925 -16.5625 48.3125 C-24.77421988 45.94852003 -30.04122705 43.36585614 -34.4375 35.875 C-37.63359863 28.95529132 -37.98015975 21.131035 -35.828125 13.81640625 C-32.78846266 7.22631863 -27.68191426 3.03736085 -21.5625 -0.6875 C-15.0001512 -2.8749496 -6.32398032 -3.0044964 0 0 Z " fill="#FFFFFF" transform="translate(36.5625,1.6875)"/>
</svg>
